<svg width="3019" height="2690" viewBox="0 0 3019 2690" fill="none" xmlns="http://www.w3.org/2000/svg">
<rect x="442" y="577" width="2106" height="1631" rx="150" stroke="black" stroke-width="100"/>
<rect x="850.168" y="230.358" width="2106" height="1631" rx="150" transform="rotate(22.5629 850.168 230.358)" stroke="black" stroke-width="100"/>
<path d="M1466.42 1635.74C1442.33 1670.24 1408.64 1696.12 1365.35 1713.38C1322.38 1730.3 1272.25 1738.77 1214.96 1738.77C1157.01 1738.77 1105.58 1725.26 1060.66 1698.24C1015.74 1670.89 980.908 1632.16 956.168 1582.03C931.754 1531.9 919.221 1473.79 918.57 1407.71V1345.7C918.57 1238.6 943.473 1155.6 993.277 1096.68C1043.41 1037.76 1113.72 1008.3 1204.21 1008.3C1278.43 1008.3 1338.17 1027.34 1383.41 1065.43C1428.66 1103.19 1456.33 1156.9 1466.42 1226.56H1372.67C1355.09 1132.48 1299.1 1085.45 1204.7 1085.45C1141.88 1085.45 1094.19 1107.58 1061.64 1151.85C1029.41 1195.8 1013.13 1259.6 1012.81 1343.26V1401.36C1012.81 1481.12 1031.04 1544.59 1067.5 1591.79C1103.95 1638.67 1153.27 1662.11 1215.45 1662.11C1250.6 1662.11 1281.36 1658.2 1307.73 1650.39C1334.1 1642.57 1355.91 1629.39 1373.16 1610.84V1451.17H1208.61V1375H1466.42V1635.74ZM1717.4 1652.34H2054.31V1729H1623.16V1018.06H1717.4V1652.34Z" fill="black"/>
</svg>
